<svg overflow="hidden" version="1.1" viewBox="0 0 4378 1e3" xmlns="http://www.w3.org/2000/svg"><defs><clipPath id="b"><rect x="1534" y="728" width="2737" height="1019"/></clipPath><linearGradient id="a" x1="554.3" x2="1542" y1="480" y2="1489" gradientTransform="matrix(.9777 0 0 .9823 409.8 725.2)" gradientUnits="userSpaceOnUse"><stop stop-color="#15acf5" offset="0"/><stop stop-color="#0084eb" offset="1"/></linearGradient></defs><g transform="translate(-880,-1700)"><g transform="translate(-66,522)"><rect x="1254" y="1428" width="691.7" height="600" ry="0" fill="#fff" stroke-width="16.3"/><path d="m991.8 1178c-25.38 0-45.82 20.53-45.82 46.03v907.9c0 25.5 20.43 46.03 45.82 46.03h908.4c25.38 0 45.82-20.53 45.82-46.03v-520.6l-321.3 306.8-64.28 60.16-212.6-219.7v143.2l-88.07 88.48v-383.1h381.3l-87.18 87.59h-145.2l154.7 159.5 382.6-363.9v-266.3c0-25.5-20.43-46.03-45.82-46.03zm356 516.7v.3166l.3304-.3166z" fill="url(#a)" stroke-width="20.56"/><g fill="#14aaf4" stroke-width="21.29"><path d="m4910 1416q0 10.41-3.938 18.38-3.938 7.969-10.59 13.12-7.875 6.188-17.34 8.812-9.375 2.625-23.91 2.625h-49.5v-139.6h41.34q15.28 0 22.88 1.125 7.594 1.125 14.53 4.688 7.688 4.031 11.16 10.41 3.469 6.281 3.469 15.09 0 9.938-5.062 16.97-5.062 6.938-13.5 11.16v.75q14.16 2.906 22.31 12.47 8.156 9.469 8.156 24zm-31.22-62.91q0-5.062-1.688-8.531t-5.438-5.625q-4.406-2.531-10.69-3.094-6.281-.6563-15.56-.6563h-22.12v40.31h24q8.719 0 13.88-.8437 5.156-.9375 9.562-3.75 4.406-2.812 6.188-7.219 1.875-4.5 1.875-10.59zm11.91 63.66q0-8.438-2.531-13.41-2.531-4.969-9.188-8.438-4.5-2.344-10.97-3-6.375-.75-15.56-.75h-29.16v51.94h24.56q12.19 0 19.97-1.219 7.781-1.312 12.75-4.688 5.25-3.656 7.688-8.344t2.438-12.09z"/><path d="m5022 1408h-77.16q0 9.656 2.906 16.88 2.906 7.125 7.969 11.72 4.875 4.5 11.53 6.75 6.75 2.25 14.81 2.25 10.69 0 21.47-4.219 10.88-4.312 15.47-8.438h.9375v19.22q-8.906 3.75-18.19 6.281-9.281 2.531-19.5 2.531-26.06 0-40.69-14.06-14.62-14.16-14.62-40.12 0-25.69 13.97-40.78 14.06-15.09 36.94-15.09 21.19 0 32.62 12.38 11.53 12.38 11.53 35.16zm-17.16-13.5q-.094-13.88-7.031-21.47-6.844-7.594-20.91-7.594-14.16 0-22.59 8.344-8.344 8.344-9.469 20.72z"/><path d="m5103 1458q-4.969 1.312-10.88 2.156-5.812.8437-10.41.8437-16.03 0-24.38-8.625-8.344-8.625-8.344-27.66v-55.69h-11.91v-14.81h11.91v-30.09h17.62v30.09h36.38v14.81h-36.38v47.72q0 8.25.375 12.94.375 4.594 2.625 8.625 2.062 3.75 5.625 5.531 3.656 1.688 11.06 1.688 4.312 0 9-1.219 4.688-1.312 6.75-2.156h.9375z"/><path d="m5206 1459h-17.53v-11.16q-2.344 1.594-6.375 4.5-3.938 2.812-7.688 4.5-4.406 2.156-10.12 3.562-5.719 1.5-13.41 1.5-14.16 0-24-9.375-9.844-9.375-9.844-23.91 0-11.91 5.062-19.22 5.156-7.406 14.62-11.62 9.562-4.219 22.97-5.719 13.41-1.5 28.78-2.25v-2.719q0-6-2.156-9.938-2.062-3.938-6-6.188-3.75-2.156-9-2.906t-10.97-.75q-6.938 0-15.47 1.875-8.531 1.781-17.62 5.25h-.9375v-17.91q5.156-1.406 14.91-3.094t19.22-1.688q11.06 0 19.22 1.875 8.25 1.781 14.25 6.188 5.906 4.312 9 11.16 3.094 6.844 3.094 16.97zm-17.53-25.78v-29.16q-8.062.4688-19.03 1.406-10.88.9375-17.25 2.719-7.594 2.156-12.28 6.75-4.688 4.5-4.688 12.47 0 9 5.438 13.59 5.438 4.5 16.59 4.5 9.281 0 16.97-3.562 7.688-3.656 14.25-8.719z"/></g><rect x="4697" y="1245" width="615.8" height="307.9" ry="64.51" fill-opacity="0" stroke="#14aaf4" stroke-width="21.29"/></g><g transform="translate(482.4 982.9)" clip-path="url(#b)"><path transform="translate(1598 731.4)" d="m46.27 203.6h299.7c-5.219 18.98-10.2 35.83-14.95 50.54-3.796 12.34-7.355 23.73-10.68 34.17-3.322 10.44-5.221 15.66-5.695 15.66h-153.8l1.423 15.66v87.55h143.8v101.8h-143.8v202.9h-116v-508.2zm350.2 136.7 108.2-.002v193.6c0 16.61 1.424 30.49 4.271 41.64s7.118 19.93 12.81 26.34c5.694 6.406 12.69 10.91 21 13.52s18.15 3.915 29.54 3.915c13.76 0 26.1-.712 37.02-2.136l-1.424-12.81v-264.1h108.2v351.6c-17.56 6.169-38.56 11.63-63 16.37-24.44 4.745-49.47 7.118-75.1 7.118-24.2 0-47.34-1.899-69.4-5.695s-41.4-11.86-58.01-24.2-29.78-30.25-39.51-53.74c-9.728-23.49-14.59-55.17-14.59-95.03zm552.4-4.271c24.68 0 47.69 3.441 69.05 10.32 21.35 6.881 39.74 17.91 55.16 33.1s27.53 34.88 36.3 59.08c8.78 24.2 13.17 53.39 13.17 87.55s-4.39 63.35-13.17 87.55c-8.77 24.2-20.88 43.89-36.3 59.08s-33.81 26.22-55.16 33.1c-21.36 6.881-44.38 10.32-69.05 10.32-25.15 0-48.29-3.44-69.4-10.32s-39.39-17.92-54.81-33.1-27.52-34.88-36.3-59.08c-8.778-24.2-13.17-53.39-13.17-87.55 0-33.69 4.39-62.52 13.17-86.48 8.779-23.96 20.88-43.66 36.3-59.08s33.69-26.69 54.81-33.81 44.25-10.68 69.4-10.68zm0 286.9c21.35 0 38.08-7.118 50.18-21.35 12.1-14.24 18.15-39.39 18.15-75.45s-6.05-61.33-18.15-75.81-28.83-21.71-50.18-21.71c-20.88 0-37.61 7.474-50.18 22.42s-18.86 39.98-18.86 75.1c0 36.06 6.169 61.22 18.51 75.45s29.18 21.35 50.54 21.35zm259.8-193.6h-44.13v-89.69h44.13v-101.1h106.8v101.1h88.27l-49.83 89.69h-41.99l3.55 22.78v111.8c0 12.34.84 22.3 2.5 29.9s4.27 13.52 7.83 17.8 8.06 7.237 13.52 8.898 11.75 2.491 18.86 2.491c5.22 0 11.63-.593 19.22-1.779 7.6-1.187 15.66-2.491 24.2-3.915l5.7 47.69 4.27 42.71c-13.76 2.848-26.34 4.983-37.73 6.407-11.39 1.423-23.01 2.135-34.88 2.135-44.13 0-76.87-10.2-98.23-30.61-21.35-20.4-32.03-54.1-32.03-101.1zm432.8 119.6c-4.75-.949-9.73-1.544-14.95-1.781-5.22-.239-9.73-.356-13.52-.356-19.94 0-36.07 3.084-48.41 9.253-12.34 6.17-18.5 16.85-18.5 32.03 0 9.491 2.25 16.96 6.76 22.42 4.51 5.458 10.08 9.492 16.72 12.1 6.65 2.61 13.65 4.153 21 4.627 7.36.475 13.64.712 18.86.712 9.5 0 20.17-1.186 32.04-3.559zm-37.02-78.3c3.8 0 8.9.121 15.3.357 6.41.238 13.65.593 21.71 1.067-.47-18.51-7-30.49-19.57-35.95-12.58-5.458-28.83-8.186-48.76-8.186-10.91 0-23.49 1.304-37.73 3.915-14.23 2.61-29.66 6.525-46.26 11.74l-11.39-39.15c-1.43-5.22-3.44-12.81-6.05-22.78-2.61-9.966-4.39-17.8-5.34-23.49 23.72-8.067 46.15-13.88 67.26-17.44 21.12-3.559 40.22-5.338 57.31-5.338 50.3 0 89.21 11.98 116.7 35.95 27.53 23.96 41.29 62.28 41.29 115v208.6c-18.51 5.22-39.86 10.32-64.07 15.3-24.2 4.983-50.3 7.475-78.29 7.475-24.68 0-47.1-2.136-67.27-6.407s-37.49-11.39-51.96-21.35c-14.48-9.966-25.63-23.02-33.46-39.15s-11.74-35.83-11.74-59.08 4.86-42.71 14.59-58.37 22.3-28.12 37.72-37.37c15.43-9.254 32.75-15.78 51.97-19.58s38.55-5.694 58.01-5.694zm211.4 241.3v-116h116v116zm308.2-371.6v371.6h-107.5v-257l3.56-25.62h-61.21l48.4-88.98zm-2.85-30.61h-106.8v-96.81h106.8zm239.9 26.34c24.68 0 47.69 3.441 69.05 10.32 21.35 6.881 39.74 17.91 55.16 33.1s27.53 34.88 36.31 59.08c8.77 24.2 13.16 53.39 13.16 87.55s-4.39 63.35-13.16 87.55c-8.78 24.2-20.88 43.89-36.31 59.08-15.42 15.19-33.81 26.22-55.16 33.1-21.36 6.881-44.37 10.32-69.05 10.32-25.15 0-48.28-3.44-69.4-10.32s-39.39-17.92-54.81-33.1-27.52-34.88-36.3-59.08-13.17-53.39-13.17-87.55c0-33.69 4.39-62.52 13.17-86.48s20.88-43.66 36.3-59.08 33.69-26.69 54.81-33.81 44.25-10.68 69.4-10.68zm0 286.9c21.36 0 38.08-7.118 50.18-21.35 12.11-14.24 18.16-39.39 18.16-75.45s-6.05-61.33-18.16-75.81c-12.1-14.48-28.82-21.71-50.18-21.71-20.88 0-37.61 7.474-50.18 22.42-12.58 14.95-18.86 39.98-18.86 75.1 0 36.06 6.16 61.22 18.5 75.45s29.19 21.35 50.54 21.35z"/></g></g></svg>
